# xmcd
#
# Track frame offsets:
#	150
#	11753
#	27639
#	38414
#	55058
#	74817
#	89197
#	106217
#	119766
#	132759
#	146078
#	165128
#
# Disc length: 2312 seconds
#
# Revision: 1
# Processed by: cddbd v1.5.2PL0 Copyright (c) Steve Scherf et al.
# Submitted via: audiograbber 1.83.01
#
DISCID=ab09060c
DTITLE=Doug Gabriel - Solid Gold Classics
DYEAR=2002
DGENRE=Country
TTITLE0=Crazy Arms
TTITLE1=You Gave Me A Mountain
TTITLE2=He'll Have To Go
TTITLE3=I've Got A Lot Of Plans For You
TTITLE4=Wind Beneath My Wings
TTITLE5=God Bless The USA
TTITLE6=Pretty Woman
TTITLE7=My Woman, My Woman My Wife
TTITLE8=Release Me
TTITLE9=Just Love Me
TTITLE10=American Trilogy
TTITLE11=This Could Be The Day
EXTD=
EXTT0=
EXTT1=
EXTT2=
EXTT3=
EXTT4=
EXTT5=
EXTT6=
EXTT7=
EXTT8=
EXTT9=
EXTT10=
EXTT11=
PLAYORDER=
